<svg width="269" height="178" viewBox="0 0 269 178" xmlns="http://www.w3.org/2000/svg" xmlns:xlink="http://www.w3.org/1999/xlink"><svg viewBox="-1 -1 144.4 61.5" width="144.4" height="61.5" id="clear-view-escapes"><title>clear-view-escapes</title><text transform="translate(0 45.75)" fill="#FFF" font-family="'MVBoli'" font-size="42">MySite</text></svg><svg id="comment" data-name="Layer 1" width="66" height="66" viewBox="-1 -1 66 66" y="111.5"><defs><style>.bcls-1{fill:#2f5572}</style></defs><title>comment</title><path class="bcls-1" d="M.72.08A.67.67 0 0 0 0 .8v46.48a.72.72 0 0 0 .72.72H48l16 16V.72a.67.67 0 0 0-.72-.72H.8z"/></svg><svg viewBox="-1 -1 23.2 44" width="23.2" height="44" id="facebook" x="66" y="61.5"><title>facebook</title><path fill="#FFF" d="M19.2 27.3c-.3 0-.5.2-.5.5s-.2.5-.5.5h-1.1c-.3 0-.5-.2-.5-.5v-2.1c0-.3.2-.5.5-.5h1.1c.3 0 .5.2.5.5s.2.5.5.5.5-.2.5-.5c0-.9-.7-1.6-1.6-1.6H17c-.9 0-1.6.7-1.6 1.6v2.1c0 .9.7 1.6 1.6 1.6h1.1c.9 0 1.6-.7 1.6-1.6 0-.3-.2-.5-.5-.5z"/><path fill="#FFF" d="M19.2 22.1c.3 0 .5-.3.5-.7V4.5c0-.4-.2-.7-.5-.7H7.6c-.1 0-.1 0-.2.1h-.1l-.1.1L1 12.4s0 .1-.1.1 0 .1-.1.1v24.3c0 .4.2.7.5.7h17.9c.3 0 .5-.3.5-.7v-4.2c0-.4-.2-.7-.5-.7s-.5.3-.5.7v3.5H1.9V13.6h5.8c.3 0 .5-.3.5-.7V5.2h10.5v16.2c0 .4.2.7.5.7zM7.1 12.2H2.6l4.5-6.1v6.1z"/></svg><svg viewBox="-1 -1 58 58" width="58" height="58" id="fire" x="124" y="111.5"><path d="M36.985 0H7.963C7.155 0 6.5.655 6.5 1.926V55c0 .345.655 1 1.463 1h40.074c.808 0 1.463-.655 1.463-1V12.978c0-.696-.093-.92-.257-1.085L37.607.257A.884.884 0 0 0 36.985 0z" fill="#e9e9e0"/><path fill="#d9d7ca" d="M37.5.151V12h11.849z"/><path d="M48.037 56H7.963A1.463 1.463 0 0 1 6.5 54.537V39h43v15.537c0 .808-.655 1.463-1.463 1.463z" fill="#c8bdb8"/><circle cx="18.5" cy="47" r="3" fill="#fff"/><circle cx="28.5" cy="47" r="3" fill="#fff"/><circle cx="38.5" cy="47" r="3" fill="#fff"/></svg><svg viewBox="-1 -1 58 58" width="58" height="58" id="globe" x="66" y="111.5"><path d="M36.985 0H7.963C7.155 0 6.5.655 6.5 1.926V55c0 .345.655 1 1.463 1h40.074c.808 0 1.463-.655 1.463-1V12.978c0-.696-.093-.92-.257-1.085L37.607.257A.884.884 0 0 0 36.985 0z" fill="#e9e9e0"/><path fill="#d9d7ca" d="M37.5.151V12h11.849z"/><path d="M48.037 56H7.963A1.463 1.463 0 0 1 6.5 54.537V39h43v15.537c0 .808-.655 1.463-1.463 1.463z" fill="#0096e6"/><path d="M23.58 51.975c-.374.364-.798.638-1.271.82s-.984.273-1.531.273c-.602 0-1.155-.109-1.661-.328s-.948-.542-1.326-.971-.675-.966-.889-1.613c-.214-.647-.321-1.395-.321-2.242s.107-1.593.321-2.235c.214-.643.511-1.178.889-1.606s.822-.754 1.333-.978 1.062-.335 1.654-.335c.547 0 1.058.091 1.531.273s.897.456 1.271.82l-1.135 1.012c-.228-.265-.48-.456-.759-.574s-.567-.178-.868-.178c-.337 0-.658.063-.964.191s-.579.344-.82.649-.431.699-.567 1.183-.21 1.075-.219 1.777c.009.684.08 1.267.212 1.75s.314.877.547 1.183.497.528.793.67.608.212.937.212.636-.06.923-.178.549-.31.786-.574l1.134.999zm8.053-1.737c0 .364-.075.718-.226 1.06s-.362.643-.636.902-.61.467-1.012.622-.856.232-1.367.232c-.219 0-.444-.012-.677-.034s-.467-.062-.704-.116-.463-.13-.677-.226-.398-.212-.554-.349l.287-1.176c.128.073.289.144.485.212s.398.132.608.191.419.107.629.144.405.055.588.055c.556 0 .982-.13 1.278-.39s.444-.645.444-1.155c0-.31-.104-.574-.314-.793s-.472-.417-.786-.595-.654-.355-1.019-.533-.706-.388-1.025-.629-.583-.526-.793-.854-.314-.738-.314-1.23c0-.446.082-.843.246-1.189s.385-.641.663-.882.602-.426.971-.554.759-.191 1.169-.191c.419 0 .843.039 1.271.116s.774.203 1.039.376c-.055.118-.118.248-.191.39l-.205.396c-.063.123-.118.226-.164.308s-.073.128-.082.137c-.055-.027-.116-.063-.185-.109s-.166-.091-.294-.137-.296-.077-.506-.096-.479-.014-.807.014c-.183.019-.355.07-.52.157s-.31.193-.438.321-.228.271-.301.431-.109.313-.109.458c0 .364.104.658.314.882s.47.419.779.588.647.333 1.012.492.704.354 1.019.581.576.513.786.854.318.781.318 1.319zm7.41 0c0 .364-.075.718-.226 1.06s-.362.643-.636.902-.61.467-1.012.622-.856.232-1.367.232c-.219 0-.444-.012-.677-.034s-.467-.062-.704-.116-.463-.13-.677-.226-.398-.212-.554-.349l.287-1.176c.128.073.289.144.485.212s.398.132.608.191.419.107.629.144.405.055.588.055c.556 0 .982-.13 1.278-.39s.444-.645.444-1.155c0-.31-.104-.574-.314-.793s-.472-.417-.786-.595-.654-.355-1.019-.533-.706-.388-1.025-.629-.583-.526-.793-.854-.314-.738-.314-1.23c0-.446.082-.843.246-1.189s.385-.641.663-.882.602-.426.971-.554.759-.191 1.169-.191c.419 0 .843.039 1.271.116s.774.203 1.039.376c-.055.118-.118.248-.191.39l-.205.396c-.063.123-.118.226-.164.308s-.073.128-.082.137c-.055-.027-.116-.063-.185-.109s-.166-.091-.294-.137-.296-.077-.506-.096-.479-.014-.807.014c-.183.019-.355.07-.52.157s-.31.193-.438.321-.228.271-.301.431-.109.313-.109.458c0 .364.104.658.314.882s.47.419.779.588.647.333 1.012.492.704.354 1.019.581.576.513.786.854.318.781.318 1.319z" fill="#fff"/><path d="M19.5 19v-4c0-.551.448-1 1-1a1 1 0 1 0 0-2c-1.654 0-3 1.346-3 3v4c0 1.103-.897 2-2 2a1 1 0 1 0 0 2c1.103 0 2 .897 2 2v4c0 1.654 1.346 3 3 3a1 1 0 1 0 0-2c-.552 0-1-.449-1-1v-4c0-1.2-.542-2.266-1.382-3a3.975 3.975 0 0 0 1.382-3zm20 2c-1.103 0-2-.897-2-2v-4c0-1.654-1.346-3-3-3a1 1 0 1 0 0 2c.552 0 1 .449 1 1v4c0 1.2.542 2.266 1.382 3a3.975 3.975 0 0 0-1.382 3v4c0 .551-.448 1-1 1a1 1 0 1 0 0 2c1.654 0 3-1.346 3-3v-4c0-1.103.897-2 2-2a1 1 0 1 0 0-2z" fill="#0096e6"/></svg><svg viewBox="-1 -1 44 44" width="44" height="44" id="instagram" x="144.4" y="66"><title>instagram</title><path fill="#FFF" d="M39.6 2.7C38.1 1.2 36.3.4 34.2.4H8.4C6.3.4 4.5 1.2 3 2.7 1.4 4.2.7 6 .7 8.2v25.7c0 2.1.8 3.9 2.3 5.4 1.5 1.5 3.3 2.3 5.4 2.3h25.7c2.1 0 3.9-.8 5.4-2.3 1.5-1.5 2.3-3.3 2.3-5.4V8.2c0-2.2-.7-4-2.2-5.5zM13.2 34.9H7V16.3h6.2v18.6zm-.5-22c-.6.6-1.5.9-2.5.9s-1.8-.3-2.5-.9c-.6-.6-1-1.4-1-2.3 0-.9.3-1.7 1-2.3.7-.6 1.5-.9 2.5-.9s1.9.3 2.5.9c.6.6.9 1.4 1 2.3-.1.9-.4 1.6-1 2.3zm22.8 22h-6.2V25c0-2.8-1-4.2-3.1-4.2-.8 0-1.4.2-2 .7-.5.4-.9 1-1.2 1.6-.1.3-.2.8-.2 1.5V35h-6.2c.1-11.2.1-17.4 0-18.6h6.2V19c1.3-2 3.1-3.1 5.5-3.1 2.1 0 3.9.7 5.2 2.1 1.3 1.4 2 3.5 2 6.2v10.7z"/></svg><svg id="mail" data-name="Layer 1" width="66" height="50" viewBox="-1 -1 66 50" y="61.5"><defs><style>.gcls-1{fill:#2f5572}</style></defs><title>mail</title><path class="gcls-1" d="M0 0v8l32 16L64 8V0H0zm0 16v32h64V16L32 32z"/></svg><svg viewBox="-1 -1 58 58" width="58" height="58" id="rain" x="210.4"><path d="M36.985 0H7.963C7.155 0 6.5.655 6.5 1.926V55c0 .345.655 1 1.463 1h40.074c.808 0 1.463-.655 1.463-1V12.978c0-.696-.093-.92-.257-1.085L37.607.257A.884.884 0 0 0 36.985 0z" fill="#e9e9e0"/><path fill="#d9d7ca" d="M37.5.151V12h11.849z"/><path d="M48.037 56H7.963A1.463 1.463 0 0 1 6.5 54.537V39h43v15.537c0 .808-.655 1.463-1.463 1.463z" fill="#ec6630"/><path d="M17.455 42.924V53h-1.641v-4.539h-4.361V53H9.785V42.924h1.668v4.416h4.361v-4.416h1.641zm9.652 0v1.121H24.1V53h-1.654v-8.955h-3.008v-1.121h7.669zm9.598 0h1.668V53h-1.668v-6.932l-2.256 5.605H33l-2.27-5.605V53h-1.668V42.924h1.668l2.994 6.891 2.981-6.891zm5.865 0v8.832h4.635V53h-6.303V42.924h1.668z" fill="#fff"/><path d="M23.207 16.293a.999.999 0 0 0-1.414 0l-6 6a.999.999 0 0 0 0 1.414l6 6a.997.997 0 0 0 1.414 0 .999.999 0 0 0 0-1.414L17.914 23l5.293-5.293a.999.999 0 0 0 0-1.414zm18 6l-6-6a.999.999 0 1 0-1.414 1.414L39.086 23l-5.293 5.293a.999.999 0 1 0 1.414 1.414l6-6a.999.999 0 0 0 0-1.414z" fill="#ec6630"/></svg><svg id="star" data-name="Layer 1" width="66" height="66" viewBox="-1 -1 66 66" x="144.4"><defs><style>.icls-1{fill:#d4953f}</style></defs><title>star</title><path class="icls-1" d="M32 0l-8 24H0l20 16-8 24 20-16 20 16-8-24 20-16H40z"/></svg><svg viewBox="-1 -1 53.8 44.1" width="53.8" height="44.1" id="twitter" x="210.4" y="116"><title>twitter</title><g fill="#FFF"><path d="M43.6 11.7c-.1-.4-.2-.7-.3-.9-.2-.5-.5-.9-.4-.9v-.2c-.1-.1-.1-.1-.2 0l-.1.1s0-.1.1-.1c.1-.1 0-.1 0 0-.1 0-.8-.4-1.8-.3-2.4.2-5.5 3.1-6.4 4.9-.9 1.7-1.3 7.4.1 8.8.8.8.5.6 1.5 1 2.8 1.2 2.7 4.1-1.4 3.9-.9-.1-1.4-.6-1.8-1.4-.5-.9-.6-1.7-.5-1.8.1-.1.1-.2.1-.4 0-.1-.1-.2-.2-.1s-.3-.4-.5-1c-.1-.4-.3-.7-.5-1-.3-.5-1.4-.1-1.6.3-2.3 2.7-1.8 7.1-4 10-.3.4-4-2.4-1.4-4.7.7-.7 1.4-1.2 2-2 1.1-1.4 1.4-3.8 1.3-5.7v-.7c0-.4-.1-.6-.1-.6s-.4 0-.9.1c-.3.1-.7.3-.7.4-1.6 2.2-6.9 10.5-9 5.6-.7-1.6 3.1-3.3 4.2-4 1.7-1.1 2.8-2.8 3.6-4.6.2-.4-.8-.2-.9-.2-2.1.5-6.1 2.5-6.8-.7-.6-2.9 3.4-1.2 4.6-1.2h.2c.1 0 .3-.1.4-.1.1 0 .1 0 .2-.1 2.6-1.6 5.3-3 7.5-5.2 1.5-1.6 2.8-5.2.9-7-.1-.1-.2-.2-.3-.2-.2-.1-.2-.2-.2-.2l.1-.1s-.3-.3-.7-.4c-.4-.2-.8-.1-.9-.1 0 0-.8-.1-1.8 0-3.4.4-7.5 3.5-9.5 4.8-2.8 1.7-6.1 2.1-8.7 3.9-2.8 2-2.1 6.7-1.9 9.6.3 3.5-1 8.6 1.3 11.6 3.2 4.1 8.1 6.8 12.7 9.2 7.1 3.8 11.9-.2 17.7-4.5 2.8-2.1 6-4.3 6.6-8 .3-2.2-.2-4.7-.4-6.9-.3-3.1-.6-6-1.2-8.9zM29.7 25.3c.2-.7.6-1 .7-.6.1.4 0 1-.4 1.3-.3.4-.5 0-.3-.7zM9.5 10.5c.3-.4.7-.8 1.2-1.2.8-.6 1-.3.3.4-.3.4-.7.7-1 1.1-.7.7-1.1.5-.5-.3zm33.1 16.9c.5-.2.8.3.5 1.2-.2.8-.5 1.5-1 2.3-2.2 3.1-6.5 5.5-9.6 7.6-1.2.8-2.3 1.3-3.4 1.6-.9.2-1.6.1-1.4-.1.2-.2.2-.2 0 0s-.9.4-1.5.4c-.6-.1-.8-.5-.4-.8.4-.4.2-.9-.4-1.2-.6-.3-1.4-.2-1.8.2-.4.4-.4 1 .1 1.2.5.2.2.2-.7-.2-1.5-.6-3-1.5-4.6-2.4-3.3-1.8-7.4-4.6-9.2-7.9-.9-1.6-.8-3.8-.7-5.7.1-1 .1-1.4.1-1 0 .4.5.2 1.2-.5.6-.6 1.3-1.2 1.9-1.9.7-.7 1.2-1.6 1.2-2.1s-.6-.3-1.3.4l-1.8 1.8c-.7.7-1.2 1.2-1.2 1.1v-1c0-.5.5-1.5 1.2-2.2.6-.6 1.1-1.2 1.7-1.7.7-.7 1.2-1.8 1.2-2.6 0-.7-.4-.7-1.1-.1-.7.6-1.3 1.3-2 1.9-.7.7-1.3.5-1.3-.5V15c0-1 .7-2.3 1.4-3 .6-.6 1.2-1.1 1.8-1.7L12.8 9c.7-.7 2-1.6 2.8-2 1.6-.8 3.1-1.6 4.6-2.4.9-.5 1-.3.3.4-.4.4-.8.8-1.2 1.1-.7.7-.5 1 .4.7.5-.2 1.1-.4 1.7-.6h.1l1.3-1.3 1.7-1.7c1.6-1.7.6-.6-1.4 1.5-.6.7-1.1 1.2-1.1 1.2.1 0 .7-.6 1.3-1.3.5-.5.9-1 1.4-1.4.7-.7 1.6-1.4 2.1-1.4s.5.4.1.9c-.4.4-.3.5.4.1.6-.3 1.8-.1 2.2.8.4 1.1.3 2.5-.3 3.9-.9 2.3-3.5 3.8-5.9 5.1-.9.4-2.3.6-3.3.4-2.1-.4-4.4-.6-5 1.8-.9 4.1 2.8 3.6 5.8 2.8.9-.2 1.4.2.8 1-1.1 1.5-2.6 2.6-4.5 3.4-.9.4-1.5.8-2 1.6-1 1.4.6 3.9 2.1 4.1 2.6.3 4.9-1.8 6.8-4.1.6-.8 1.2-1.5 1.3-1.6.1-.1.2.5 0 1.5-.3 1.4-1 2.7-2 3.6-1 .9-1.8 1.4-2.2 2.6-.6 1.7 2.1 4.1 3.8 3.9 2.1-.3 3.1-2 3.7-4 .3-.9.8-2.1 1.3-2.6s1-.4 1.1.1c.1.5.2 1 .2 1.1 0 0 .1 0 .1.1 2.3.8 4.8.8 6.9-.3 3.1-1.6.4-3.8-1.4-5.5-.7-.7-.8-1.7-.4-2.1.4-.4.4-.5 0-.1-.4.3-.7.7-.7.7v-.1c-.6-2.9-.3-6.3 1.5-8.7 1.2-1.7 2.1-2.3 2.8-2.4 1-.1.8 1.5.1 2.2-1.1 1.1-2.2 2.2-3.3 3.2l-1.3 1.3s.6-.5 1.3-1.2c1.2-1.2 2.3-2.3 3.4-3.3.7-.7 1.3-1.2 1.3-1.2l-1.3 1.3c-1.1 1.1-2.2 2.2-3.4 3.3-.7.7-1.3 1.3-1.3 1.4 0 .1.6-.4 1.3-1.1 1.2-1.1 2.4-2.3 3.5-3.3.7-.7 1.6-.5 1.8.3.2.6.2 1.2.3 1.6.4 2.2.5 4.4.7 6.6 0 .5.1.9.1 1.4.1.8.1 1.4.1 1.4s-.6.6-1.2 1.3c-.5.5-1 1-1.5 1.6-.7.7-1.1 1.3-1 1.3.1 0 .8-.5 1.5-1.2l1-1c.7-.7 1.3-.9 1.3-.4s-.4 1.2-.8 1.7c-.5.3-.5.6 0 .4z"/><path d="M13.3 28.9c-.1.1-.1.1 0 0 .2-.2.2-.2 0 0zm26.9-14.3c0-.1-.4.3-1 .9-.6.6-.6.6 0 .1l1-1zM11.8 24.8l-1.7 1.7c-.7.7-1.2 1.6-1.1 1.9.1.4.8.1 1.5-.6.4-.4.8-.8 1.2-1.3.7-.7 1.2-1.6 1.2-2.1.1-.5-.4-.3-1.1.4zm-2.2-.9c.2-.3.1-.1-.3.3s-.7.7-.7.8l.3-.3.3-.3c.1-.2.3-.3.4-.5zm9.8 12c-.4.4-.3.4-.5.6-.2.2-.2.5.1.7.3.2.9-.1 1.4-.5.5-.5.6-1 .3-1.2-.3-.2-.9-.1-1.3.4zm-4.8-1.6c.1.1.6-.4 1.1-.9s1-1 .9-1.1c0 0-.5.4-1.1.9-.5.6-.9 1.1-.9 1.1zm.3-3.6c-.3-.3-1-.1-1.6.5-.6.6-.9 1.3-.6 1.6.3.3 1 0 1.6-.5.6-.7.8-1.3.6-1.6zm25.5-6.8c.5-.6.7-1.1.4-1.3-.2-.2-.4-.5-.5-.6-.1-.1-.5.2-1 .7-.5.5-.6 1-.3 1.3.1.2.3.4.3.6v.2c.2 0 .6-.4 1.1-.9zm-8.6 6.4l-.9.9c-.7.7-.3 1.7.4 1 .4-.3.8-.9 1.1-1.5.4-.9.1-1.1-.6-.4z"/></g></svg><svg viewBox="-1 -1 58 58" width="58" height="58" id="wifi" x="210.4" y="58"><path d="M36.985 0H7.963C7.155 0 6.5.655 6.5 1.926V55c0 .345.655 1 1.463 1h40.074c.808 0 1.463-.655 1.463-1V12.978c0-.696-.093-.92-.257-1.085L37.607.257A.884.884 0 0 0 36.985 0z" fill="#e9e9e0"/><path fill="#d9d7ca" d="M37.5.151V12h11.849z"/><path d="M48.037 56H7.963A1.463 1.463 0 0 1 6.5 54.537V39h43v15.537c0 .808-.655 1.463-1.463 1.463z" fill="#eeaf4b"/><path d="M26.021 42.719v7.848c0 .474-.087.873-.26 1.196a2.151 2.151 0 0 1-.697.779c-.292.196-.627.333-1.005.41s-.769.116-1.169.116c-.201 0-.436-.021-.704-.062s-.547-.104-.834-.191-.563-.185-.827-.294a3.022 3.022 0 0 1-.67-.369l.697-1.107c.091.063.221.13.39.198s.353.132.554.191c.2.06.41.111.629.157s.424.068.615.068c.482 0 .868-.094 1.155-.28s.439-.504.458-.95v-7.711h1.668zm8.163 7.519c0 .364-.075.718-.226 1.06s-.362.643-.636.902-.611.467-1.012.622a3.771 3.771 0 0 1-1.367.232c-.219 0-.444-.012-.677-.034s-.468-.062-.704-.116c-.237-.055-.463-.13-.677-.226s-.399-.212-.554-.349l.287-1.176c.127.073.289.144.485.212s.398.132.608.191c.209.06.419.107.629.144.209.036.405.055.588.055.556 0 .982-.13 1.278-.39s.444-.645.444-1.155c0-.31-.105-.574-.314-.793-.21-.219-.472-.417-.786-.595s-.654-.355-1.019-.533a6.173 6.173 0 0 1-1.025-.629 3.264 3.264 0 0 1-.793-.854c-.21-.328-.314-.738-.314-1.23 0-.446.082-.843.246-1.189s.385-.641.663-.882.602-.426.971-.554.759-.191 1.169-.191c.419 0 .843.039 1.271.116.428.077.774.203 1.039.376a13.31 13.31 0 0 1-.191.39l-.205.396c-.064.123-.119.226-.164.308a1.263 1.263 0 0 1-.082.137c-.055-.027-.116-.063-.185-.109s-.167-.091-.294-.137a2.107 2.107 0 0 0-.506-.096 4.781 4.781 0 0 0-.807.014c-.183.019-.355.07-.52.157s-.311.193-.438.321a1.446 1.446 0 0 0-.301.431 1.1 1.1 0 0 0-.109.458c0 .364.104.658.314.882.209.224.469.419.779.588.31.169.646.333 1.012.492.364.159.704.354 1.019.581s.576.513.786.854c.212.342.318.781.318 1.319z" fill="#fff"/><g fill="#eeaf4b"><path d="M19.5 19v-4c0-.551.448-1 1-1a1 1 0 1 0 0-2c-1.654 0-3 1.346-3 3v4c0 1.103-.897 2-2 2a1 1 0 1 0 0 2c1.103 0 2 .897 2 2v4c0 1.654 1.346 3 3 3a1 1 0 1 0 0-2c-.552 0-1-.449-1-1v-4c0-1.2-.542-2.266-1.382-3a3.975 3.975 0 0 0 1.382-3z"/><circle cx="27.5" cy="18.5" r="1.5"/><path d="M39.5 21c-1.103 0-2-.897-2-2v-4c0-1.654-1.346-3-3-3a1 1 0 1 0 0 2c.552 0 1 .449 1 1v4c0 1.2.542 2.266 1.382 3a3.975 3.975 0 0 0-1.382 3v4c0 .551-.448 1-1 1a1 1 0 1 0 0 2c1.654 0 3-1.346 3-3v-4c0-1.103.897-2 2-2a1 1 0 1 0 0-2zm-12 3a1 1 0 0 0-1 1v3a1 1 0 1 0 2 0v-3a1 1 0 0 0-1-1z"/></g></svg><svg viewBox="-1 -1 36.8 44" width="36.8" height="44" id="youtube" x="89.2" y="61.5"><title>youtube</title><g fill="#FFF"><path d="M12.8 30c-.2 0-.3.2-.3.3 0 .2.2.2.4.2.2-.1.3-.2.3-.3-.1-.2-.2-.3-.4-.2zm-1.2.1c-.2 0-.3.1-.3.2 0 .2.1.3.4.2.2 0 .3-.1.3-.2-.1-.1-.2-.2-.4-.2zm-1.7 0c-.1.2 0 .3.3.3.2.1.4 0 .4-.1 0-.2-.1-.3-.3-.3-.2-.1-.4-.1-.4.1z"/><path d="M32.1 5.3c-1.2-1.2-2.7-1.8-4.4-1.8H7.1c-1.7-.1-3.2.5-4.4 1.8C1.5 6.5.9 7.9.9 9.6v20.6c0 1.7.6 3.2 1.8 4.4 1.2 1.2 2.7 1.8 4.4 1.8h5.5c.2 0 .3-.1.5-.3.2-.2.2-.4.2-.7v-3.7l-.5.1c-.3.1-.7.1-1.2.1s-1-.1-1.5-.2-1-.3-1.4-.6c-.4-.3-.8-.8-.9-1.3l-.2-.5c-.1-.3-.4-.7-.7-1.1-.3-.4-.6-.7-.9-.8l-.2-.1-.3-.3c-.1-.1-.2-.2-.2-.3 0-.1 0-.2.1-.2.1-.1.3-.1.6-.1l.4.1c.3.1.6.2 1.1.5.4.3.8.7 1 1.1.3.6.7 1 1.2 1.3.5.3.9.5 1.4.5s.9 0 1.2-.1c.3-.1.7-.2 1-.3.1-1 .5-1.7 1.1-2.2-.8-.1-1.6-.2-2.2-.4-.7-.2-1.3-.5-2-.8-.7-.4-1.3-.9-1.7-1.4-.5-.7-.9-1.5-1.2-2.4-.3-.9-.4-2-.4-3.2 0-1.7.6-3.2 1.7-4.4-.5-1.3-.5-2.8.2-4.4.4-.1 1 0 1.8.3s1.4.6 1.8.8c.4.2.7.4.9.6 1.3-.4 2.7-.6 4.1-.6 1.4 0 2.8.2 4.1.6l.8-.5c.6-.3 1.2-.7 2-.9.8-.3 1.3-.4 1.7-.2.6 1.6.7 3.1.2 4.4 1.1 1.2 1.7 2.7 1.7 4.4 0 1.2-.1 2.3-.4 3.2-.3.9-.7 1.7-1.1 2.3-.5.6-1 1-1.7 1.4-.7.4-1.4.7-2 .8-.7.2-1.4.3-2.2.4.7.6 1.1 1.7 1.1 3v5.1c0 .2 0 .4.1.6.1.2.2.3.3.3.2.1.3.1.4.1h5.3c1.7 0 3.2-.6 4.4-1.8 1.2-1.2 1.8-2.7 1.8-4.4V9.6c0-1.7-.6-3.1-1.8-4.3z"/><path d="M7.4 27.5c-.1.1-.1.2 0 .3.1.1.3.2.3.1.1-.1.1-.2 0-.3-.1-.2-.2-.2-.3-.1zm-.7-.6c0 .1 0 .2.2.3.1.1.2.1.3 0 0-.1 0-.2-.2-.3-.2-.1-.3-.1-.3 0zm1.4 1.4c-.1.1-.1.2 0 .4s.3.2.4.2c.1-.1.1-.2 0-.4-.2-.3-.3-.3-.4-.2zm.7 1c-.1.1-.1.3.1.4.2.2.3.2.4.1.1-.1.1-.3-.1-.4-.1-.2-.3-.3-.4-.1z"/></g></svg></svg>